 <svg  version="1.0" xmlns="http://www.w3.org/2000/svg"  width="300.000000pt" height="169.000000pt" viewBox="0 0 300.000000 169.000000"  preserveAspectRatio="xMidYMid meet">  <g transform="translate(0.000000,169.000000) scale(0.100000,-0.100000)" fill="#7e6de7" stroke="none"> <path d="M744 1036 c-50 -22 -64 -51 -64 -131 0 -38 4 -76 9 -84 11 -18 46 -24 141 -25 62 -1 75 2 78 16 5 25 -27 37 -102 39 -48 1 -66 6 -66 15 0 8 5 14 10 14 6 0 9 23 8 53 l-1 52 -7 -50 -8 -50 2 50 1 50 75 3 c106 3 120 8 120 37 0 25 -1 25 -82 25 -47 -1 -97 -7 -114 -14z m-41 -164 c2 -34 0 -57 -5 -50 -4 7 -7 42 -7 78 1 75 6 63 12 -28z"/> <path d="M1033 1038 c-49 -24 -17 -46 72 -50 l70 -3 3 -97 c3 -96 3 -98 27 -98 26 0 43 16 23 22 -7 3 -12 35 -12 95 -1 50 -4 95 -8 99 -13 13 -9 27 5 18 7 -5 4 -1 -6 9 -22 20 -136 23 -174 5z"/> <path d="M1261 1036 c-15 -8 -20 -16 -12 -20 7 -5 11 -40 11 -96 0 -84 1 -90 26 -109 22 -17 41 -21 105 -21 93 0 115 6 97 27 -9 11 -9 16 3 24 9 6 -17 9 -73 10 -49 1 -92 3 -98 4 -5 1 -14 3 -20 4 -5 0 -10 6 -10 12 0 6 6 9 14 6 12 -5 15 11 18 84 3 84 2 89 -17 89 -11 -1 -31 -7 -44 -14z"/> <path d="M1566 1037 c-10 -8 -15 -19 -11 -29 5 -14 23 -18 83 -20 l77 -3 3 -78 c2 -53 -1 -77 -8 -72 -6 4 -10 -5 -10 -23 0 -29 1 -30 36 -22 36 8 57 20 35 20 -9 0 -12 28 -10 107 1 93 -1 108 -17 120 -23 17 -154 17 -178 0z"/> <path d="M1797 1039 c-13 -8 -15 -14 -7 -29 5 -10 10 -32 10 -48 0 -16 8 -36 17 -43 15 -12 16 -12 10 5 -6 16 -5 17 8 6 20 -16 14 -35 -11 -35 -16 0 -19 -8 -22 -52 -2 -41 0 -53 12 -53 34 0 46 12 46 49 0 23 -3 31 -9 23 -7 -11 -9 -11 -14 2 -4 9 -3 15 1 15 4 -1 22 -1 40 0 27 1 32 5 32 26 0 14 5 25 11 25 7 0 9 -10 7 -24 -5 -22 -1 -25 31 -28 32 -3 36 -6 38 -33 2 -25 1 -27 -7 -10 -7 16 -9 13 -9 -17 -1 -26 3 -36 12 -34 6 3 24 7 40 10 25 6 27 10 27 51 0 38 -3 45 -20 45 -11 0 -20 5 -20 10 0 6 0 13 0 18 0 4 5 7 11 7 15 0 21 53 7 61 -6 4 -7 9 0 13 5 3 12 16 16 29 8 26 -8 29 -49 10 -19 -8 -25 -19 -25 -42 0 -24 3 -27 10 -16 9 13 10 13 10 0 0 -33 -17 -42 -77 -43 -64 -1 -83 6 -83 29 0 8 5 12 10 9 6 -4 10 10 10 34 0 36 -3 41 -22 41 -13 0 -31 -5 -41 -11z"/> <path d="M2080 1035 c-9 -11 -9 -22 -2 -45 6 -16 7 -30 2 -30 -5 0 -8 -15 -7 -34 1 -19 4 -32 6 -30 2 2 12 -2 20 -10 17 -16 129 -24 149 -12 7 4 12 16 12 27 0 16 -7 19 -44 19 -24 0 -52 3 -62 7 -12 4 -15 3 -10 -5 5 -8 2 -10 -8 -6 -9 4 -16 17 -15 33 0 23 1 24 9 6 6 -14 9 -4 9 38 1 54 0 57 -23 57 -13 0 -29 -7 -36 -15z"/> <path d="M2278 1036 c-13 -9 -18 -26 -17 -57 1 -41 2 -42 9 -14 6 21 8 8 7 -45 l-2 -75 -28 2 c-15 1 -25 -2 -22 -8 8 -12 -5 -11 -44 2 -46 16 -81 5 -81 -27 l0 -26 94 4 c83 3 98 6 120 27 23 22 25 31 28 127 l3 104 -25 0 c-14 0 -33 -7 -42 -14z"/> <path d="M983 987 c-23 -10 -31 -27 -13 -27 6 0 10 -32 9 -77 0 -53 -3 -72 -9 -58 -7 17 -9 14 -9 -13 -1 -33 0 -33 32 -27 44 10 47 13 46 43 0 24 -1 25 -9 7 -8 -18 -9 -17 -9 7 -1 27 0 27 47 21 56 -6 92 8 92 37 0 17 -7 20 -54 20 -30 0 -58 -5 -61 -10 -11 -18 -25 0 -24 33 1 31 1 31 9 7 l8 -25 1 27 c1 34 -25 50 -56 35z"/> <path d="M1515 987 c-15 -11 -17 -22 -12 -58 4 -24 9 -64 13 -89 8 -55 7 -54 39 -46 18 5 25 13 25 31 0 14 -4 25 -10 25 -5 0 -10 4 -10 10 0 5 20 7 48 3 57 -6 92 8 92 38 0 20 -5 21 -70 17 l-70 -4 1 31 c1 29 1 29 9 5 l8 -25 1 24 c1 13 -7 30 -16 37 -23 17 -25 17 -48 1z"/> <path d="M803 938 c-13 -6 -23 -20 -23 -32 0 -19 5 -21 57 -17 32 1 61 8 64 13 4 7 9 6 13 -1 4 -6 2 -11 -3 -11 -6 0 -11 -11 -11 -25 0 -20 5 -25 26 -25 23 0 25 3 19 28 -3 16 -1 41 4 55 l11 27 -68 -1 c-37 0 -77 -5 -89 -11z"/> <path d="M597 769 c-12 -7 -16 -17 -11 -31 3 -11 2 -18 -2 -15 -17 10 -54 -12 -54 -33 0 -11 5 -20 10 -20 6 0 10 -11 10 -25 0 -14 -4 -25 -10 -25 -18 0 -11 -59 9 -79 17 -17 33 -19 137 -18 l117 2 3 29 3 28 -104 -4 -104 -3 -12 26 c-6 15 -9 38 -6 51 3 18 5 16 6 -9 2 -46 16 -48 16 -2 0 21 -3 39 -7 39 -5 0 -8 5 -8 11 0 5 5 7 12 3 8 -5 9 -2 5 9 -5 14 6 17 91 19 l97 3 3 28 3 27 -93 0 c-51 0 -101 -5 -111 -11z"/> <path d="M843 772 c-12 -7 -20 -39 -26 -97 -1 -11 4 -20 12 -20 23 0 23 -20 2 -39 -16 -15 -18 -22 -8 -36 8 -14 8 -25 0 -43 -11 -23 -10 -23 26 -18 33 6 36 9 39 45 3 29 0 36 -10 30 -7 -4 -9 -3 -5 2 4 4 22 13 39 19 41 13 49 51 13 57 -14 3 -25 1 -25 -6 0 -5 -8 -2 -17 8 -13 13 -15 20 -5 23 7 3 12 22 12 44 0 40 -16 51 -47 31z"/> <path d="M1033 768 c-13 -6 -23 -20 -23 -30 0 -11 5 -16 11 -13 7 5 9 -3 7 -21 -2 -22 -10 -30 -34 -36 -22 -6 -33 -15 -36 -32 -5 -22 -1 -25 31 -28 33 -3 36 -6 38 -38 2 -28 1 -31 -7 -15 -7 17 -9 15 -9 -12 -1 -31 0 -32 32 -26 41 7 57 21 37 33 -8 5 -15 20 -15 33 -1 14 -7 32 -14 40 -15 19 -7 37 16 37 12 0 13 3 4 14 -8 10 -8 16 3 25 8 6 16 27 18 46 3 30 1 35 -17 34 -11 0 -30 -5 -42 -11z"/> <path d="M1163 768 c-24 -12 -31 -28 -11 -28 13 0 2 -14 -13 -16 -5 -1 -13 -2 -19 -3 -6 0 -10 -37 -10 -87 0 -47 -5 -94 -10 -104 -8 -15 -7 -19 2 -16 7 3 25 7 41 10 26 6 27 8 25 65 -2 32 -6 57 -10 54 -5 -2 -8 3 -8 12 0 10 5 13 11 9 8 -5 10 3 7 25 l-5 32 71 -3 71 -3 0 -30 c0 -29 -1 -30 -51 -31 -62 -1 -74 -8 -74 -40 0 -22 4 -24 50 -24 27 0 65 8 85 17 37 18 55 50 34 63 -9 6 -8 12 5 25 21 21 17 51 -7 47 -9 -1 -22 6 -29 18 -11 17 -23 20 -73 19 -33 0 -70 -5 -82 -11z"/> <path d="M1445 767 c-12 -7 -19 -20 -17 -30 2 -10 0 -17 -5 -16 -29 5 -33 -4 -33 -71 0 -40 -4 -70 -10 -70 -5 0 -10 -16 -10 -35 0 -33 2 -35 28 -29 53 11 54 12 48 51 -3 21 -5 39 -6 41 0 2 -4 0 -10 -3 -14 -8 -13 8 1 22 7 7 12 30 12 53 l0 41 71 -3 71 -3 0 -30 c0 -29 -2 -30 -50 -32 -27 -1 -56 -2 -62 -2 -8 -1 -13 -14 -13 -32 l0 -31 53 3 c59 4 77 -3 77 -32 0 -11 -4 -17 -10 -14 -5 3 -10 -3 -10 -14 0 -18 4 -20 33 -14 37 7 59 23 40 30 -7 3 -13 16 -13 29 0 13 -4 24 -10 24 -5 0 -10 12 -10 26 0 17 4 24 13 21 9 -3 12 6 10 34 -1 22 2 39 8 39 15 0 10 19 -11 40 -16 16 -33 20 -92 20 -40 -1 -82 -6 -93 -13z"/> <path d="M1725 767 c-12 -7 -19 -20 -17 -30 2 -10 0 -17 -5 -16 -31 5 -34 -2 -32 -95 1 -72 5 -96 16 -100 9 -4 12 -2 7 7 -6 9 -4 9 8 -1 11 -9 46 -12 118 -10 l103 3 3 29 3 28 -104 -4 c-87 -3 -106 -1 -111 12 -5 12 -8 11 -14 -5 -4 -13 -7 -1 -6 33 1 54 16 75 16 23 0 -17 3 -32 8 -34 11 -8 8 67 -3 75 -6 5 -5 8 4 8 7 0 11 6 7 15 -4 13 9 15 87 15 100 0 111 4 119 38 6 22 5 22 -90 22 -58 -1 -105 -6 -117 -13z"/> <path d="M2003 767 c-17 -9 -19 -16 -12 -29 8 -15 24 -18 79 -18 45 0 70 4 74 13 3 6 3 2 0 -10 -5 -20 -1 -23 26 -23 40 0 50 25 20 53 -13 12 -20 16 -16 10 4 -7 2 -13 -4 -13 -6 0 -13 7 -16 15 -8 19 -118 20 -151 2z"/> <path d="M2283 767 c-18 -10 -20 -15 -9 -29 10 -14 28 -18 79 -18 42 0 67 4 71 13 3 6 3 2 1 -9 -7 -27 16 -37 50 -22 23 10 23 12 10 38 -8 15 -22 30 -30 34 -28 11 -149 6 -172 -7z"/> <path d="M1953 719 c-14 -5 -23 -17 -23 -29 0 -14 4 -19 12 -14 8 5 9 2 4 -12 -4 -10 -4 -15 0 -11 4 4 17 -2 28 -12 17 -16 37 -20 102 -22 79 -2 81 -2 76 -25 -4 -25 9 -31 42 -18 23 9 20 58 -6 80 -12 10 -18 13 -14 7 4 -7 2 -13 -3 -13 -6 0 -11 7 -11 16 0 13 -12 15 -80 13 -78 -3 -107 4 -81 20 22 14 -19 31 -46 20z"/> <path d="M2239 720 c-7 -5 -14 -23 -14 -39 0 -16 2 -27 4 -25 2 2 13 -4 24 -13 13 -13 42 -20 96 -23 69 -5 76 -7 79 -27 3 -23 24 -29 55 -17 11 4 13 13 7 41 -9 36 -27 56 -42 47 -4 -3 -8 0 -8 6 0 8 -25 11 -82 9 -74 -3 -83 -2 -86 15 -3 11 0 16 7 12 6 -4 11 -5 11 -2 0 13 -37 24 -51 16z"/> <path d="M633 673 c-7 -2 -13 -16 -13 -29 0 -23 3 -24 69 -24 85 0 101 6 101 36 0 23 -2 24 -72 23 -40 0 -79 -3 -85 -6z"/> <path d="M1753 673 c-7 -2 -13 -16 -13 -29 0 -23 3 -24 69 -24 85 0 101 6 101 36 0 23 -2 24 -72 23 -40 0 -79 -3 -85 -6z"/> <path d="M1946 591 c-3 -5 3 -20 14 -33 11 -14 17 -28 14 -30 -9 -9 171 -8 185 1 11 7 9 13 -9 31 -20 20 -30 22 -86 17 -37 -3 -64 -1 -64 5 0 5 5 6 12 2 7 -4 8 -3 4 4 -8 14 -62 16 -70 3z"/> <path d="M2232 575 c3 -13 1 -22 -3 -19 -5 3 -9 1 -9 -5 0 -21 41 -31 122 -31 101 0 119 9 88 40 -20 20 -30 22 -86 17 -50 -4 -64 -2 -64 9 0 8 -11 14 -26 14 -23 0 -26 -4 -22 -25z"/> </g> </svg> 